<svg width="393" height="289" viewBox="0 0 393 289" fill="none" xmlns="http://www.w3.org/2000/svg">
<g opacity="0.1">
<mask id="mask0_1_470" style="mask-type:alpha" maskUnits="userSpaceOnUse" x="0" y="0" width="393" height="289">
<rect x="392.5" y="0.5" width="288" height="392" transform="rotate(90 392.5 0.5)" fill="url(#paint0_linear_1_470)" stroke="#6246E5"/>
</mask>
<g mask="url(#mask0_1_470)">
<path d="M137.818 381.92C65.1216 381.92 6.22869 325.613 6.22869 256.202C6.2287 186.791 65.1216 130.484 137.818 130.484C210.514 130.484 269.407 186.791 269.407 256.202C269.407 325.613 210.514 381.92 137.818 381.92Z" stroke="#6246E5"/>
<path d="M151.722 386.902C70.3869 386.902 4.49076 323.903 4.49076 246.238C4.49077 168.572 70.3869 105.573 151.722 105.573C233.058 105.573 298.954 168.572 298.954 246.238C298.954 323.903 233.058 386.902 151.722 386.902Z" stroke="#6246E5"/>
<path d="M163.019 391.885C74.0048 391.885 1.88363 322.938 1.88363 237.934C1.88363 152.931 74.0048 83.9834 163.019 83.9834C252.034 83.9834 324.155 152.931 324.155 237.934C324.155 322.938 252.034 391.885 163.019 391.885Z" stroke="#6246E5"/>
<path d="M179.531 395.206C83.7973 395.206 6.22911 321.054 6.22912 229.63C6.22912 138.206 83.7973 64.0542 179.531 64.0542C275.264 64.0542 352.833 138.206 352.833 229.63C352.833 321.054 275.264 395.206 179.531 395.206Z" stroke="#6246E5"/>
<path d="M195.607 398.528C93.3945 398.528 10.5739 319.357 10.5739 221.741C10.5739 124.126 93.3945 44.9553 195.607 44.9553C297.82 44.9553 380.641 124.126 380.641 221.742C380.641 319.357 297.82 398.528 195.607 398.528Z" stroke="#6246E5"/>
<path d="M213.856 402.68C101.565 402.68 10.574 315.702 10.574 208.456C10.574 101.21 101.565 14.2316 213.856 14.2316C326.148 14.2316 417.139 101.21 417.139 208.456C417.139 315.702 326.148 402.68 213.856 402.68Z" stroke="#6246E5"/>
</g>
</g>
<defs>
<linearGradient id="paint0_linear_1_470" x1="597.97" y1="11.0261" x2="392.09" y2="392.509" gradientUnits="userSpaceOnUse">
<stop stop-color="#747DEF"/>
<stop offset="1" stop-color="#5E3BE1"/>
</linearGradient>
</defs>
</svg>
