<svg width="71" height="70" viewBox="0 0 71 70" fill="none" xmlns="http://www.w3.org/2000/svg">
<circle cx="35.0095" cy="35" r="35" fill="url(#paint0_linear_1_489)"/>
<path d="M52.62 23.9904C53.3114 25.1878 53.2187 26.6136 52.3773 27.711L33.9035 51.8182C33.1416 52.8123 31.8871 53.3191 30.6044 53.0729C29.3482 52.8313 28.3522 51.9156 28.0066 50.6841L25.2731 40.9555L24.9884 39.9435L24.2544 39.191L17.196 31.9595C16.3022 31.0444 16.0072 29.724 16.4261 28.5154C16.8406 27.3206 17.8803 26.4536 19.1622 26.2856L49.2765 22.3404C50.6476 22.1604 51.9287 22.793 52.62 23.9904Z" fill="white"/>
<path d="M25.2731 40.9555L28.0065 50.6841C28.3522 51.9157 29.3481 52.8313 30.6043 53.0729C31.8871 53.3192 33.1416 52.8124 33.9034 51.8182L52.3772 27.7111C53.2187 26.6137 53.3113 25.1879 52.62 23.9905L24.9884 39.9436L25.2731 40.9555Z" fill="white"/>
<path d="M36.2328 33.4515C36.5139 33.9385 36.3475 34.5616 35.8599 34.8431L25.2732 40.9553L24.9885 39.9434L24.2545 39.1909L34.8412 33.0787C35.3288 32.7973 35.9516 32.9646 36.2328 33.4515Z" fill="url(#paint1_linear_1_489)"/>
<path d="M25.2731 40.9554L35.8598 34.8432C36.3474 34.5617 36.5139 33.9387 36.2327 33.4517L24.9884 39.9435L25.2731 40.9554Z" fill="url(#paint2_linear_1_489)"/>
<defs>
<linearGradient id="paint0_linear_1_489" x1="49.6563" y1="1.96393" x2="19.5735" y2="77.7643" gradientUnits="userSpaceOnUse">
<stop stop-color="#747DEF"/>
<stop offset="1" stop-color="#5E3BE1"/>
</linearGradient>
<linearGradient id="paint1_linear_1_489" x1="32.4173" y1="34.5441" x2="33.5549" y2="36.8251" gradientUnits="userSpaceOnUse">
<stop stop-color="#747DEF"/>
<stop offset="1" stop-color="#5E3BE1"/>
</linearGradient>
<linearGradient id="paint2_linear_1_489" x1="32.9123" y1="35.4017" x2="33.5164" y2="36.5259" gradientUnits="userSpaceOnUse">
<stop stop-color="#747DEF"/>
<stop offset="1" stop-color="#5E3BE1"/>
</linearGradient>
</defs>
</svg>
